<?xml version="1.0" encoding="utf-8"?>
<!-- Generator: Adobe Illustrator 16.0.0, SVG Export Plug-In . SVG Version: 6.00 Build 0)  -->
<!DOCTYPE svg PUBLIC "-//W3C//DTD SVG 1.1//EN" "http://www.w3.org/Graphics/SVG/1.1/DTD/svg11.dtd">
<svg version="1.1"
	 id="svg2" sodipodi:docname="No.svg" inkscape:version="0.48.2 r9819" inkscape:export-ydpi="1152" inkscape:export-filename="C:\Users\MagWhiz\Documents\Diseños\Iconos\No.png" inkscape:export-xdpi="1152" xmlns:dc="http://purl.org/dc/elements/1.1/" xmlns:cc="http://creativecommons.org/ns#" xmlns:inkscape="http://www.inkscape.org/namespaces/inkscape" xmlns:sodipodi="http://sodipodi.sourceforge.net/DTD/sodipodi-0.dtd" xmlns:svg="http://www.w3.org/2000/svg" xmlns:rdf="http://www.w3.org/1999/02/22-rdf-syntax-ns#"
	 xmlns="http://www.w3.org/2000/svg" xmlns:xlink="http://www.w3.org/1999/xlink" x="0px" y="0px" width="20px" height="20px"
	 viewBox="0 0 20 20" enable-background="new 0 0 20 20" xml:space="preserve">
<sodipodi:namedview  inkscape:window-maximized="1" inkscape:window-y="-8" inkscape:window-x="-8" inkscape:window-height="1002" inkscape:window-width="1280" inkscape:guide-bbox="true" inkscape:pageshadow="2" inkscape:current-layer="layer1" inkscape:pageopacity="0.0" inkscape:document-units="px" inkscape:cy="9.9861555" inkscape:cx="13.791118" showguides="true" showgrid="false" inkscape:zoom="11.313709" id="base" pagecolor="#ffffff" borderopacity="1.0" bordercolor="#666666">
	</sodipodi:namedview>
<g id="layer1" transform="translate(0,-1032.3622)" inkscape:groupmode="layer" inkscape:label="Capa 1">
	
		<circle id="circle4651" sodipodi:ry="88.5" sodipodi:rx="88.5" sodipodi:cy="100" sodipodi:cx="100" fill="#FFFFFF" fill-opacity="0" cx="10.009" cy="1042.363" r="8.563">
	</circle>
	
		<path id="rect4669" sodipodi:nodetypes="ssssssssss" inkscape:connector-curvature="0" inkscape:export-ydpi="90" inkscape:export-filename="C:\Users\MagWhiz\Downloads\Toolbar\toolbar contexto.png" inkscape:export-xdpi="90" fill="#FFFFFF" d="
		M3.179,1035.507c-3.769,3.77-3.803,9.922-0.034,13.692c3.77,3.77,9.957,3.77,13.726,0s3.735-9.922-0.034-13.692
		C13.067,1031.738,6.949,1031.738,3.179,1035.507z M4.758,1037.086c2.919-2.919,7.581-2.919,10.5,0
		c2.92,2.919,2.953,7.615,0.034,10.534s-7.649,2.92-10.568,0C1.805,1044.701,1.839,1040.005,4.758,1037.086z"/>
	<path id="path3031" inkscape:connector-curvature="0" fill="#FFFFFF" d="M5.097,1041.216v2.265l3.768,0.022v3.745h2.265v-3.745
		l3.768-0.022v-2.265l-3.768,0.022v-3.79H8.864v3.79L5.097,1041.216L5.097,1041.216z"/>
</g>
</svg>
